<?xml version="1.0" encoding="UTF-8" standalone="no"?>
<svg
   width="384.13998"
   height="401.84"
   viewBox="0 0 384.13998 401.84"
   version="1.1"
   id="svg4"
   xmlns="http://www.w3.org/2000/svg"
   xmlns:svg="http://www.w3.org/2000/svg">
  <defs
     id="defs4" />
  <g
     id="g4"
     transform="translate(-398.7,-243.07)">
    <path
       d="m 639.95,325.7 5.34,0.22 2.38,0.26 4.54,0.63 1.91,0.47 1.84,0.5 0.82,0.28 1.57,0.61 0.67,0.34 3.63,2.32 2.26,1.9 0.99,1.06 1.86,2.17 0.72,1.12 1.29,2.24 0.36,1.08 0.67,3.39 0.1,2.56 -0.11,1.4 -0.32,2.89 -0.32,1.54 -0.74,3.15 -0.52,1.64 -1.14,3.35 -0.7,1.72 -1.51,3.47 -0.89,1.76 -1.85,3.53 -1.06,1.77 -2.18,3.52 -1.21,1.74 -4.2,6.03 2.56,5.05 4,9.01 2.1,6.02 0.77,3.02 1.36,6.05 0.4,3.04 0.6,6.09 0.02,3.06 -0.14,6.14 -0.35,3.09 -0.89,6.2 -0.73,3.13 -1.64,6.27 -1.1,3.16 -2.39,6.36 -1.48,3.21 -1.35,3.04 -0.76,1.81 -0.28,0.74 -0.51,1.35 -0.13,0.44 -0.18,0.71 0.06,0.06 1.03,0.32 1.39,0.26 0.98,0.14 2.14,0.29 1.3,0.15 2.74,0.31 1.53,0.16 3.17,0.31 1.68,0.15 3.43,0.29 1.76,0.14 7.08,0.51 3.29,0.17 13.11,0.67 0.67,-9.89 0.16,-2.38 0.11,-1.91 0.07,-1.09 0.13,-2.25 0.07,-1.23 0.14,-2.52 0.07,-1.33 0.61,-11.32 0.25,-5.36 0.45,-9.1 0.28,-5.81 0.14,-2.78 0.28,-5.46 0.13,-2.59 0.27,-5.11 0.13,-2.42 0.25,-4.76 0.12,-2.24 0.25,-4.4 0.11,-2.06 0.23,-4.04 0.12,-1.89 0.22,-3.67 0.1,-1.71 0.21,-3.31 0.1,-1.52 0.19,-2.95 0.1,-1.33 0.18,-2.58 0.09,-1.15 0.17,-2.21 0.08,-0.96 0.16,-1.83 0.07,-0.78 0.15,-1.46 0.07,-0.59 0.13,-1.07 0.06,-0.4 0.12,-0.7 0.06,-0.21 1.37,-2.96 1.32,-1.41 0.83,-0.38 2.35,-0.89 1.23,-0.21 0.54,0.09 1.05,0.34 0.54,0.39 1.11,0.93 0.66,0.71 1.26,1.58 0.53,1.09 0.15,0.71 0.23,1.56 0.03,1.11 0.01,1.17 -0.01,0.7 -0.02,1.47 -0.03,0.86 -0.09,2.6 -0.09,2.32 -0.06,1.42 -0.13,3 -0.08,1.74 -0.16,3.6 -0.09,2 -0.19,4.12 -0.11,2.21 -0.22,4.54 -0.11,2.4 -0.49,9.89 -0.26,5.22 -0.53,10.59 -0.27,5.31 -0.55,10.56 -0.26,5.03 -0.27,4.97 -0.13,2.38 -0.25,4.67 -0.12,2.2 -0.23,4.28 -0.12,1.97 -0.21,3.81 -0.1,1.7 -0.87,14.79 2.54,2.71 2.41,3.13 1.23,2.24 0.42,1.18 0.73,2.38 0.18,1.22 0.22,2.46 -0.07,1.23 -0.26,2.47 -0.32,1.22 -0.76,2.42 -0.56,1.17 -1.24,2.31 -0.8,1.09 -1.73,2.14 -1.04,0.98 -3.13,2.93 v 17.36 l -0.01,5.17 -0.03,2.9 -0.02,1.22 -0.06,2.3 -0.05,0.95 -0.1,1.79 -0.06,0.74 -0.16,1.39 -0.09,0.58 -0.22,1.1 -0.13,0.48 -0.61,1.75 -0.44,0.86 -2.52,3.82 -1.98,1.96 -1.15,0.69 -2.42,1.21 -1.39,0.34 -2.9,0.49 -1.66,-0.01 -3.32,-0.27 -2.28,-0.48 -1.37,-0.45 -1.42,-0.5 -0.81,-0.32 -1.69,-0.68 -0.97,-0.41 -2.02,-0.89 -1.17,-0.52 -2.43,-1.12 -1.4,-0.65 -5.23,-2.39 -3.09,-1.37 -1.25,-0.53 -1.19,-0.5 -0.51,-0.2 -0.94,-0.38 -0.36,-0.13 -0.66,-0.23 -0.2,-0.06 -0.33,-0.07 -0.03,0.03 -0.03,0.64 0.03,0.96 0.04,0.72 0.1,1.59 0.07,1.01 0.15,2.15 0.1,1.26 0.21,2.63 0.12,1.47 0.25,3.04 0.15,1.65 0.61,6.9 0.35,3.76 1.04,11.56 0.66,7.67 0.29,3.54 0.28,3.47 0.13,1.61 0.24,3.12 0.1,1.4 0.19,2.66 0.08,1.13 0.14,2.1 0.04,0.8 0.19,3.77 0.09,2.08 0.02,0.86 0.02,1.62 -0.02,0.68 -0.06,1.28 -0.07,0.56 -0.37,2.04 -0.37,0.99 -0.4,1 -0.25,0.55 -0.55,1.16 -0.33,0.67 -2.59,4.32 -2,2.41 -1.16,0.99 -2.43,1.84 -1.4,0.74 -2.93,1.34 -1.67,0.5 -1.13,0.28 -0.86,0.12 -0.91,0.11 -0.55,0.06 -1.17,0.1 -0.69,0.04 -1.45,0.09 -0.85,0.04 -1.78,0.08 -1.02,0.04 -2.13,0.06 -1.22,0.03 -2.53,0.06 -1.43,0.02 -2.96,0.05 -1.66,0.02 -3.43,0.03 -1.91,0.02 -3.93,0.03 -2.18,0.01 -4.47,0.02 h -2.46 l -5.06,0.01 -2.75,0.01 h -5.67 -3.08 -6.32 -3.42 l -7.01,-0.01 h -3.77 l -14.74,-0.04 -9.43,-0.04 -4.45,-0.02 -8.69,-0.05 -4,-0.03 -3.93,-0.04 -1.87,-0.01 -3.67,-0.04 -1.72,-0.02 -3.37,-0.04 -1.57,-0.02 -3.05,-0.04 -1.4,-0.02 -2.7,-0.04 -1.22,-0.03 -2.33,-0.04 -1.02,-0.02 -1.93,-0.05 -0.81,-0.02 -1.51,-0.05 -0.59,-0.03 -1.05,-0.05 -0.36,-0.02 -0.58,-0.05 -0.1,-0.03 -5.14,-1.89 -3.14,-1.82 -1.37,-1.14 -2.61,-2.44 -1.06,-1.42 -1.95,-2.94 -0.68,-1.63 -1.43,-5.1 -0.17,-1.77 0.02,-0.95 0.11,-1.96 0.16,-1.07 0.4,-2.23 0.31,-1.25 0.7,-2.61 0.47,-1.48 1.01,-3.08 0.63,-1.75 1.35,-3.65 0.8,-2.07 2.27,-5.98 1.3,-3.55 0.5,-1.44 0.48,-1.38 0.19,-0.58 0.35,-1.09 0.13,-0.42 0.22,-0.77 0.06,-0.24 0.07,-0.39 -0.02,-0.04 -0.89,-0.37 -1.25,-0.36 -0.89,-0.21 -1.93,-0.45 -1.15,-0.25 -2.39,-0.49 -1.29,-0.24 -5.25,-1.15 -3.07,-0.85 -1.33,-0.47 -2.53,-1 -1.07,-0.56 -2.03,-1.16 -0.84,-0.66 -1.57,-1.37 -0.62,-0.77 -1.15,-1.6 -0.43,-0.9 -0.76,-1.87 -0.25,-1.04 -0.42,-2.17 -0.09,-1.2 -0.07,-3.12 0.22,-1.94 0.3,-1.11 0.33,-1.13 0.22,-0.64 0.49,-1.34 0.3,-0.76 0.66,-1.61 0.4,-0.93 0.85,-1.95 0.5,-1.13 7.4,-15.91 2.46,-5.03 1.22,-2.41 2.41,-4.73 1.18,-2.23 2.34,-4.37 1.13,-2.02 2.22,-3.95 1.06,-1.78 2.08,-3.45 0.97,-1.52 1.9,-2.9 0.87,-1.22 3.49,-4.88 -3.39,-3.39 -3.39,-3.4 -7.33,3.03 -3.48,1.39 -2.08,0.8 -0.95,0.34 -3.57,1.19 -1.58,0.38 -3.06,0.65 -1.52,0.17 -3.07,0.23 -1.72,0.01 -4.75,-0.36 -2.72,-0.64 -1.16,-0.52 -2.19,-1.2 -0.91,-0.81 -1.72,-1.78 -0.71,-1.12 -1.01,-1.92 -0.43,-1.3 -0.12,-0.78 -0.17,-1.67 v -1.09 l 0.05,-2.37 0.09,-1.57 0.81,-6.68 1.01,-4.52 0.8,-2.44 0.85,-2.49 0.5,-1.31 1.07,-2.69 0.62,-1.44 1.31,-2.94 0.74,-1.59 1.56,-3.27 0.88,-1.76 6.9,-12.64 5.17,-8.4 2.84,-4.14 5.82,-8.23 3.13,-4.02 6.39,-7.96 3.36,-3.83 6.84,-7.57 3.56,-3.6 7.19,-7.07 3.7,-3.3 7.45,-6.44 3.78,-2.95 7.6,-5.7 3.82,-2.53 6.56,-4.14 4.63,-2.7 2.41,-1.31 9.92,-5.15 5.21,-2.36 10.55,-4.54 5.33,-1.97 5.34,-1.92 2.65,-0.87 5.29,-1.67 2.61,-0.73 9.71,-2.42 6.59,-1.34 3.3,-0.52 6.57,-0.96 3.21,-0.34 6.35,-0.58 3.03,-0.14 5.94,-0.19 m -37.4,189.59 -1.16,0.28 -2.28,0.72 -1.04,0.62 -2.01,1.42 -0.84,0.98 -1.57,2.14 -0.56,1.33 -0.7,2.47 -0.18,1.66 0.05,0.83 0.19,1.66 0.22,0.8 0.53,1.59 0.38,0.74 0.84,1.47 0.53,0.66 1.12,1.29 0.66,0.56 1.38,1.05 0.77,0.42 1.61,0.78 0.88,0.26 2.05,0.42 1.01,-0.03 2.03,-0.22 0.96,-0.32 1.9,-0.77 0.88,-0.56 1.68,-1.22 0.73,-0.75 1.38,-1.57 0.54,-0.89 0.98,-1.84 0.3,-0.98 0.48,-2.01 0.02,-1.03 -0.11,-2.07 -0.3,-1.03 -1.76,-3.7 -1.62,-1.99 -0.97,-0.74 -2.04,-1.32 -1.12,-0.41 -2.29,-0.65 -1.18,-0.08 m 4.55,-138.38 0.57,14.78 -3.19,3.64 -2.16,2.01 -1.69,1.2 -0.95,0.53 -1.97,0.99 -1.07,0.41 -2.2,0.78 -1.16,0.3 -2.37,0.53 -1.23,0.18 -2.49,0.29 -1.28,0.05 -2.55,0.03 -1.29,-0.09 -2.57,-0.25 -1.27,-0.23 -6.35,-1.46 -3.99,-1.25 -1.93,-0.78 -3.8,-1.67 -1.87,-1.01 -3.73,-2.14 -1.88,-1.26 -2.58,-1.71 -1.54,-1 -0.62,-0.4 -1.15,-0.72 -0.38,-0.22 -0.61,-0.35 h -0.05 l -0.15,0.23 -0.08,0.37 -0.03,0.27 -0.11,1.27 v 0.81 l -0.21,3.54 -0.34,2.42 -0.26,1.23 -1.3,4.95 -0.99,2.43 -2.17,4.79 -1.36,2.21 -1.4,2.17 -0.76,1.01 -1.56,1.98 -0.83,0.9 -3.52,3.48 -2.29,1.87 -1.21,0.77 -2.47,1.44 -1.4,0.63 -2.94,1.19 -1.74,0.57 -2.83,1 -1.22,0.58 -0.36,0.32 -0.57,0.67 -0.12,0.44 -0.15,0.97 v 0.66 l 0.37,4.08 0.59,3 0.45,1.6 1.01,3.26 0.63,1.69 1.37,3.4 0.8,1.72 1.67,3.43 0.93,1.69 1.92,3.36 1.03,1.6 2.13,3.15 1.11,1.47 2.27,2.84 1.17,1.26 3.95,3.98 2.71,2.45 1.41,1.13 2.85,2.19 1.47,1.01 2.99,1.94 1.55,0.89 3.14,1.7 1.62,0.76 3.3,1.47 1.72,0.65 3.47,1.23 1.81,0.54 3.66,1.01 1.9,0.42 3.34,0.68 1.67,0.23 3.34,0.4 1.67,0.1 6.68,0.14 3.29,-0.33 6.57,-0.9 3.2,-0.82 6.35,-1.9 3.06,-1.3 6.03,-2.84 2.86,-1.76 5.61,-3.74 2.61,-2.19 5.09,-4.6 2.31,-2.61 2.27,-2.65 1.07,-1.41 2.1,-2.85 0.98,-1.5 4.11,-7.37 2.23,-5.17 0.85,-2.69 1.54,-5.43 0.51,-2.77 0.84,-5.6 0.16,-2.82 0.14,-5.66 -0.2,-2.82 -0.56,-5.63 -0.55,-2.78 -1.28,-5.5 -0.91,-2.68 -1.99,-5.29 -1.27,-2.53 -3.03,-5.41 -2.32,-3.56 -1.28,-1.73 -2.64,-3.43 -1.41,-1.65 -2.89,-3.22 -1.51,-1.51 -3.05,-2.95 -1.57,-1.35 -3.16,-2.6 -1.59,-1.14 -3.19,-2.18 -1.58,-0.91 -3.14,-1.68 -1.53,-0.63 -3.68,-1.51 m 7.34,78.11 1.18,0.23 0.41,0.38 0.74,0.95 0.34,0.75 0.38,2.41 -0.35,1.67 -0.44,0.79 -1.05,1.54 -0.74,0.64 -1.61,1.17 -0.97,0.36 -1.49,0.54 -0.61,0.15 -1.15,0.21 -0.53,-0.03 -1.05,-0.13 -0.58,-0.2 -1.21,-0.49 -0.76,-0.38 -1.91,-1.63 -0.8,-1.45 -0.1,-0.81 v -1.47 l 0.29,-0.75 0.37,-0.33 0.89,-0.63 0.75,-0.35 0.81,-0.35 0.5,-0.2 1.05,-0.41 0.63,-0.24 2.41,-0.87 1.36,-0.46 0.57,-0.16 1.07,-0.28 0.44,-0.08 0.82,-0.1 m -42.41,-22.03 1.41,0.21 0.58,0.21 1.1,0.49 0.53,0.38 1.06,0.87 0.61,0.6 1.69,2.03 0.89,1.44 0.32,0.76 0.57,1.52 0.16,0.77 0.25,1.56 v 0.78 l -0.07,1.57 -0.16,0.76 -0.39,1.53 -0.32,0.73 -0.72,1.45 -0.48,0.69 -1.03,1.33 -0.64,0.62 -1.44,1.2 -0.79,0.45 -1.65,0.81 -0.87,0.25 -1.77,0.42 -0.91,0.06 -1.81,0.04 -0.89,-0.12 -1.77,-0.33 -0.83,-0.3 -1.64,-0.69 -0.74,-0.47 -1.41,-1.03 -0.6,-0.64 -1.12,-1.36 -0.41,-0.8 -0.56,-1.42 -0.33,-1.15 -0.13,-0.63 -0.43,-2.61 v -1.14 l 0.14,-2.22 0.27,-1.23 0.25,-0.55 0.59,-1.1 0.45,-0.58 1.01,-1.18 0.69,-0.69 1.96,-1.79 1.14,-0.79 0.6,-0.24 1.25,-0.38 0.79,-0.09 1.7,-0.11 h 1.14 m 61.82,-15.93 1.43,0.27 0.68,0.25 1.3,0.57 0.57,0.4 1.94,1.69 1.05,1.27 0.4,0.69 0.71,1.42 0.24,0.74 0.38,1.51 0.07,0.76 0.04,1.55 -0.1,0.76 -0.3,1.53 -0.28,0.74 -0.65,1.46 -0.45,0.68 -1,1.34 -0.63,0.61 -1.15,1.01 -0.6,0.4 -1.2,0.72 -0.61,0.26 -2.48,0.77 -1.22,0.03 -2.43,-0.18 -1.14,-0.39 -2.19,-0.98 -0.95,-0.75 -1.78,-1.64 -0.66,-1.02 -1.18,-2.15 -0.29,-1.22 -0.39,-2.52 0.17,-1.35 0.24,-1.37 0.22,-0.69 0.5,-1.39 0.37,-0.7 1.19,-1.69 1.02,-0.98 0.6,-0.41 1.26,-0.76 0.68,-0.3 1.41,-0.53 0.74,-0.17 1.49,-0.28 0.75,-0.04 1.5,-0.02 m -167.69,-123.76 5.88,0.23 3.2,0.32 6.56,0.75 3.48,0.56 7.06,1.24 3.67,0.79 7.4,1.68 3.77,1 7.57,2.09 3.79,1.19 7.56,2.47 3.72,1.36 7.39,2.81 3.57,1.51 7.61,3.38 5.27,2.47 2.65,1.3 5.28,2.62 2.53,1.31 4.98,2.6 2.28,1.24 4.39,2.43 1.87,1.1 1.82,1.07 0.81,0.5 1.55,0.96 0.66,0.44 1.25,0.83 0.5,0.37 0.91,0.69 0.32,0.28 0.53,0.52 0.12,0.19 0.13,0.34 -0.11,0.09 -1.08,0.54 -1.37,0.58 -0.94,0.37 -2.03,0.77 -1.17,0.43 -2.45,0.89 -1.31,0.45 -8.06,3.05 -5.5,2.32 -2.78,1.29 -5.58,2.66 -2.79,1.45 -5.57,2.95 -2.76,1.57 -5.49,3.2 -2.68,1.68 -5.32,3.39 -2.56,1.76 -5.07,3.55 -2.4,1.81 -4.73,3.65 -2.21,1.85 -4.86,4.24 -3.45,3.18 -1.79,1.71 -7.27,7.17 -3.58,3.77 -3.55,3.78 -1.7,1.87 -3.33,3.73 -1.55,1.79 -2.99,3.54 -1.33,1.66 -2.54,3.22 -1.06,1.45 -1.9,2.58 -0.87,1.15 -1.68,2.19 -0.69,0.88 -1.29,1.59 -0.43,0.5 -0.4,0.44 -0.14,0.13 -0.23,0.21 h -0.05 l -0.36,-0.42 -0.3,-0.7 -0.17,-0.51 -0.34,-1.12 -0.18,-0.68 -0.35,-1.43 -0.17,-0.79 -0.84,-3.61 -0.75,-2.91 -0.45,-1.65 -0.95,-3.4 -0.54,-1.83 -1.1,-3.73 -0.59,-1.93 -2.44,-7.82 -1.24,-3.74 -1.23,-3.67 -0.6,-1.71 -1.17,-3.32 -0.55,-1.46 -1.45,-3.86 -0.83,-2.17 -0.36,-0.9 -0.67,-1.68 -0.29,-0.68 -0.54,-1.26 -0.23,-0.49 -0.43,-0.88 -0.19,-0.32 -0.36,-0.57 -0.16,-0.19 -0.59,-0.5 h -0.28 l -0.42,0.29 -0.53,0.47 -0.37,0.36 -0.81,0.81 -0.5,0.51 -1.07,1.1 -0.61,0.65 -1.29,1.35 -0.7,0.76 -1.46,1.57 -0.78,0.85 -3.27,3.57 -1.75,1.96 -4.81,5.3 -2.83,3.01 -1.23,1.26 -2.37,2.36 -1.03,0.96 -1.98,1.77 -0.86,0.68 -1.64,1.22 -0.72,0.42 -1.38,0.73 -0.62,0.2 -1.18,0.28 -0.53,-0.01 -1.05,-0.11 -0.49,-0.19 -2.55,-1.36 -1.21,-1.16 -0.39,-0.77 -0.65,-1.68 -0.15,-1.1 -0.19,-2.39 0.04,-1.53 0.26,-3.25 0.34,-2.73 0.24,-1.59 0.53,-3.33 0.33,-1.83 0.68,-3.75 0.4,-1.98 1.68,-8.13 0.96,-4.06 0.96,-4.03 0.5,-1.93 0.99,-3.78 0.49,-1.75 2.07,-6.99 1.38,-4.36 0.69,-2.03 1.4,-3.97 0.71,-1.84 1.43,-3.6 0.73,-1.66 1.48,-3.24 0.76,-1.49 1.53,-2.9 0.8,-1.33 1.61,-2.57 0.84,-1.17 1.7,-2.27 0.89,-1.03 1.81,-1.98 0.95,-0.89 1.92,-1.71 1.01,-0.75 2.06,-1.45 1.09,-0.64 2.2,-1.21 1.17,-0.52 2.37,-0.99 1.25,-0.42 2.54,-0.79 1.35,-0.32 2.73,-0.59 1.45,-0.23 2.94,-0.42 1.56,-0.16 3.76,-0.24 2.68,-0.06 z"
       fill="#753dfe"
       id="path2" />
    <path
       d="m 766.42,337.53 1,0.86 0.45,0.65 0.85,1.43 0.34,0.89 0.62,1.9 0.2,1.09 0.95,3.62 0.85,1.83 0.62,0.72 1.39,1.31 0.97,0.56 2.14,1.06 1.44,0.53 2.03,0.86 1.01,0.58 0.36,0.32 0.63,0.64 0.19,0.37 0.32,0.77 0.06,0.45 -0.21,2 -0.62,1.14 -0.52,0.45 -1.17,0.81 -0.75,0.25 -1.61,0.38 h -0.93 l -2.69,0.45 -1.58,0.77 -0.7,0.63 -1.34,1.43 -0.59,0.97 -1.13,2.12 -0.5,1.33 -1.6,3.61 -0.52,0.93 -0.22,0.33 -0.42,0.56 -0.15,0.1 -0.87,0.51 -0.43,0.12 -0.85,0.18 -0.41,-0.03 -0.81,-0.14 -0.39,-0.18 -0.76,-0.44 -0.35,-0.33 -0.69,-0.72 -0.32,-0.46 -0.6,-0.99 -0.27,-0.59 -0.51,-1.25 -0.2,-0.71 -0.39,-1.49 -0.15,-0.82 -0.81,-2.76 -0.83,-1.49 -0.57,-0.59 -1.26,-1.09 -0.81,-0.41 -1.74,-0.74 -1.06,-0.26 -2.47,-0.78 -1.27,-0.63 -0.45,-0.37 -0.78,-0.8 -0.22,-0.47 -0.32,-0.98 v -0.57 l 0.48,-1.88 0.74,-1.13 0.54,-0.45 1.17,-0.83 0.69,-0.26 1.45,-0.4 h 0.78 l 2.79,-0.47 1.64,-0.77 0.7,-0.61 1.3,-1.34 0.52,-0.88 0.92,-1.89 0.3,-1.13 1.09,-2.84 0.98,-1.79 0.55,-0.75 1.12,-1.39 0.55,-0.44 1.06,-0.7 h 0.44 m -48.35,-89.68 1.24,0.33 0.62,0.35 1.25,0.84 0.61,0.62 1.32,1.63 0.7,1.27 0.29,0.82 0.54,1.77 0.24,1.16 0.48,2.53 0.25,1.63 0.95,5.37 0.74,3.1 0.43,1.34 0.93,2.56 0.57,1.09 1.19,2.09 0.72,0.9 1.52,1.7 0.91,0.74 1.93,1.4 1.13,0.62 2.39,1.2 1.4,0.54 2.92,1.07 1.69,0.51 3.08,1 1.76,0.64 0.76,0.32 1.42,0.63 0.59,0.32 1.1,0.64 0.45,0.34 0.81,0.68 0.31,0.36 0.56,0.74 0.19,0.4 0.55,1.67 v 1.02 l -0.73,2.58 -1.22,1.51 -0.97,0.65 -2.2,1.22 -1.47,0.5 -3.18,0.94 -1.97,0.36 -4.87,1.08 -2.83,0.85 -1.23,0.5 -2.33,1.07 -0.99,0.64 -1.9,1.35 -0.8,0.8 -1.51,1.7 -0.64,1 -1.2,2.1 -0.51,1.23 -0.95,2.57 -0.4,1.49 -0.75,3.1 -0.33,1.78 -1.52,5.73 -0.64,1.75 -0.32,0.73 -0.64,1.34 -0.3,0.45 -1.12,1.43 -0.65,0.54 -1.35,0.93 -0.73,0.27 -1.49,0.4 -0.76,-0.01 -1.53,-0.18 -0.74,-0.31 -1.49,-1.3 -0.93,-1.49 -0.41,-0.99 -0.78,-2.15 -0.32,-1.28 -0.57,-2.66 -0.18,-1.48 -0.89,-5.65 -0.73,-3.28 -0.45,-1.43 -0.97,-2.72 -0.6,-1.16 -1.28,-2.22 -0.77,-0.95 -1.63,-1.78 -0.98,-0.76 -2.05,-1.44 -1.2,-0.6 -2.53,-1.15 -1.46,-0.49 -3.07,-0.94 -1.75,-0.41 -4.35,-1.48 -2.55,-1.32 -1.01,-0.76 -1.83,-1.58 -0.57,-0.83 -0.5,-0.83 -0.15,-0.41 -0.23,-0.82 v -0.4 l 0.74,-2.59 1.24,-1.54 0.99,-0.67 2.22,-1.28 1.48,-0.54 3.2,-1.02 1.98,-0.42 2.91,-0.64 1.67,-0.4 0.73,-0.2 2.64,-0.82 1.06,-0.48 1.98,-1.04 0.93,-0.7 1.87,-1.52 1.09,-1.02 2.27,-2.75 1.31,-2.27 0.57,-1.43 1.12,-3.06 0.51,-1.9 0.51,-1.96 0.24,-1.09 0.5,-2.24 0.24,-1.23 0.87,-3.32 0.72,-1.93 0.42,-0.8 0.88,-1.52 0.5,-0.59 1.01,-1.09 0.55,-0.37 1.12,-0.64 0.59,-0.14 1.19,-0.16 m -70.33,-4.1 0.41,0.19 0.8,0.49 0.35,0.42 0.67,0.96 0.27,0.65 0.47,1.41 0.15,0.89 0.88,3.39 0.88,1.82 0.62,0.74 1.37,1.36 0.9,0.55 1.96,1.03 1.24,0.42 2.39,0.99 1.24,0.7 0.45,0.37 0.78,0.73 0.21,0.38 0.31,0.76 -0.02,0.37 -0.16,0.76 -0.25,0.37 -0.62,0.73 -0.48,0.35 -1.09,0.69 -0.71,0.32 -1.55,0.62 -0.94,0.29 -2.9,1.26 -1.61,1.12 -0.61,0.66 -1.1,1.4 -0.33,0.77 -0.5,1.59 v 0.83 l -0.46,2.1 -0.67,1.57 -0.43,0.61 -0.98,1.16 -0.56,0.41 -1.1,0.65 h -0.41 l -0.6,-0.24 -0.45,-0.39 -0.24,-0.28 -0.99,-1.34 -0.46,-0.87 -0.87,-1.81 -0.3,-0.9 -0.48,-1.77 v -0.68 l -0.61,-1.66 -0.9,-1.28 -0.58,-0.6 -1.21,-1.15 -0.6,-0.39 -1.15,-0.64 h -0.44 l -2.35,-0.4 -1.47,-0.62 -0.62,-0.44 -1.13,-0.93 -0.37,-0.54 -0.57,-1.09 v -0.56 l 0.21,-1.19 0.41,-0.66 0.37,-0.29 0.87,-0.57 0.66,-0.29 1.48,-0.59 1.01,-0.33 3.29,-1.32 1.55,-0.95 0.53,-0.62 0.93,-1.37 0.34,-0.94 0.6,-2.1 0.27,-1.43 0.69,-2.41 0.62,-1.28 0.37,-0.47 0.77,-0.85 0.42,-0.25 0.84,-0.4 0.43,-0.04 z"
       fill="#f7c810"
       id="path3"
       style="fill:#faff69;fill-opacity:1" />
    <path
       style="fill:#f2f2f2;fill-opacity:1;stroke:#e5e5e5;stroke-width:1.67318"
       d="m 573.13607,491.68361 c -26.90001,-4.45945 -52.98685,-29.37331 -56.33519,-53.80212 -1.01507,-7.40579 -0.94928,-7.53659 4.38013,-8.70712 11.18272,-2.45614 23.81496,-18.0689 26.07996,-32.23343 l 1.05584,-6.60288 11.11905,5.63983 c 18.09955,9.18051 33.77479,9.53626 43.92329,0.99686 l 5.29527,-4.45567 -1.04663,-14.74497 -1.04663,-14.74497 6.60132,3.36774 c 9.10717,4.64614 23.74019,20.06391 29.10349,30.66427 19.82797,39.1893 -4.31507,86.58405 -48.2428,94.70453 -5.42345,1.00258 -10.28723,1.73485 -10.8084,1.62727 -0.52118,-0.10758 -5.05659,-0.87678 -10.0787,-1.70934 z m 39.71267,-40.85606 c 2.11741,-1.48309 3.71866,-4.36497 3.71866,-6.69273 0,-3.22425 -0.86724,-4.08808 -4.10423,-4.08808 -5.53632,0 -12.62759,3.38617 -12.62759,6.02983 0,1.95398 6.14355,7.35563 8.36591,7.35563 0.51073,0 2.60199,-1.1721 4.64725,-2.60465 z m -35.58157,-12.47558 c 4.60772,-5.09147 3.9269,-13.13744 -1.50716,-17.81162 -2.50532,-2.15498 -6.42969,-3.91815 -8.72082,-3.91815 -4.56149,0 -12.37951,6.75149 -12.37951,10.69071 0,3.82281 3.3281,11.68441 5.54252,13.09246 4.04348,2.57107 13.95972,1.37786 17.06497,-2.0534 z m 55.00363,-15.25409 c 5.7503,-2.62001 8.64155,-9.97673 5.93759,-15.10808 -2.71245,-5.14745 -4.74307,-6.36973 -10.63357,-6.40061 -13.16633,-0.069 -15.2641,17.57066 -2.64152,22.21191 1.38038,0.50755 2.66258,0.98227 2.84934,1.05492 0.18677,0.0727 2.20644,-0.71851 4.48816,-1.75814 z"
       id="path6" />
    <path
       style="fill:#ffffff;fill-opacity:1;stroke:#e5e5e5;stroke-width:1.70271"
       d="m 169.4611,245.86631 c -24.10279,-6.47701 -46.14302,-29.07413 -50.0619,-51.32682 -0.90063,-5.11405 -0.49764,-5.72771 5.36794,-8.17418 11.74049,-4.89682 22.13589,-17.72303 24.95432,-30.78949 l 1.14977,-5.33043 11.71384,4.92163 c 20.26583,8.5148 32.9808,8.18688 44.0608,-1.13633 4.67699,-3.93543 4.76938,-4.35086 3.98418,-17.9148 l -0.80385,-13.88595 4.06045,2.16538 c 7.44279,3.96912 24.609,22.77993 28.57276,31.31016 5.98387,12.8776 7.90094,25.97316 5.53488,37.80871 -5.28801,26.45165 -23.27508,45.81614 -48.70908,52.43911 -12.28266,3.19839 -17.65661,3.18271 -29.82411,-0.087 z m 45.65028,-37.44876 c 5.71436,-4.00249 4.51206,-11.56218 -1.95679,-12.30374 -5.10418,-0.58513 -13.08596,3.58678 -13.08596,6.83974 0,3.01001 5.30917,8.1827 8.39859,8.1827 1.51946,0 4.50934,-1.22342 6.64416,-2.7187 z m -39.73799,-9.93943 c 10.56589,-4.41471 10.06585,-17.88259 -0.87946,-23.68718 -7.10472,-3.76782 -13.4726,-2.0661 -17.97351,4.80315 -2.55064,3.89277 -2.5996,5.05419 -0.451,10.69943 2.088,5.48606 7.84766,10.52068 12.12805,10.60136 0.73245,0.0138 3.96161,-1.07374 7.17592,-2.41676 z m 60.38502,-17.95474 c 5.13123,-2.74615 7.26735,-11.37114 4.25767,-17.19121 -5.86227,-11.33639 -22.92034,-6.95419 -22.92034,5.8882 0,10.04709 9.85586,16.01628 18.66267,11.30301 z"
       id="path1"
       transform="translate(398.70001,243.07001)" />
    <path
       style="fill:#ffffff;fill-opacity:1;stroke:#e5e5e5;stroke-width:0.180383"
       d="m 178.66927,250.11398 c -8.65448,-1.47913 -11.95104,-2.32851 -17.29461,-4.45604 -14.48426,-5.76689 -28.2118,-17.28867 -36.35438,-30.51291 -2.18781,-3.55319 -4.06342,-7.34636 -5.22543,-10.56774 l -0.4638,-1.28576 h 1.66737 1.66738 l 0.87383,2.06679 c 4.78047,11.30679 14.80478,22.90397 26.53895,30.70307 8.33036,5.53677 16.79708,8.89863 27.23782,10.81524 4.63232,0.85035 10.11451,0.80049 15.06197,-0.137 14.82591,-2.80935 26.41533,-8.5561 35.96516,-17.83372 6.83691,-6.64204 12.23701,-14.94907 15.62493,-24.03603 l 0.58846,-1.57835 h 0.79993 c 0.94944,0 0.98746,-0.29106 -0.43591,3.33709 -8.01015,20.41774 -24.69302,34.92484 -46.33316,40.29043 -1.57978,0.3917 -3.19702,0.79272 -3.59386,0.89117 -1.5648,0.38818 0.0808,0.18872 2.05268,-0.24881 17.05459,-3.78407 31.08139,-13.07408 40.91474,-27.09802 3.27711,-4.67367 6.60204,-11.19791 8.29161,-16.26994 l 0.33048,-0.99211 0.0509,2.12909 0.0509,2.12909 -0.74017,1.73242 c -8.4107,19.68579 -25.47153,34.14453 -46.44158,39.35838 -3.73794,0.92938 -13.47242,2.58148 -14.86789,2.52332 -0.25556,-0.0106 -2.94041,-0.4425 -5.96633,-0.95966 z m 9.37991,-1.00613 c 0.72331,-0.15104 0.67419,-0.16036 -0.45096,-0.0856 -0.69447,0.0462 -2.11499,0.0949 -3.1567,0.10835 l -1.89402,0.0244 1.0823,0.20851 c 1.07746,0.20758 2.6312,0.11768 4.41938,-0.25571 z m 1.75873,-0.30378 c -0.17362,-0.0454 -0.45772,-0.0454 -0.63134,0 -0.17362,0.0454 -0.0316,0.0825 0.31567,0.0825 0.34724,0 0.48929,-0.0371 0.31567,-0.0825 z m 1.07854,-0.16503 c -0.0599,-0.0599 -0.21552,-0.0663 -0.34573,-0.0142 -0.1439,0.0576 -0.10116,0.10033 0.10898,0.10898 0.19015,0.008 0.29669,-0.0348 0.23675,-0.0947 z m 2.1646,-0.36076 c -0.0599,-0.0599 -0.21552,-0.0663 -0.34574,-0.0142 -0.14389,0.0576 -0.10115,0.10032 0.10898,0.10898 0.19016,0.008 0.2967,-0.0348 0.23676,-0.0947 z m 1.08229,-0.18038 c -0.0599,-0.0599 -0.21552,-0.0663 -0.34573,-0.0142 -0.1439,0.0576 -0.10116,0.10032 0.10898,0.10898 0.19015,0.008 0.29669,-0.0348 0.23675,-0.0947 z m -36.22314,-5.72903 c -0.0413,-0.0362 -0.27809,-0.16241 -0.52612,-0.28053 -0.42521,-0.20251 -0.43096,-0.19875 -0.10081,0.0658 0.28735,0.23021 0.87448,0.43134 0.62693,0.21477 z m -1.0823,-0.54341 c -0.18363,-0.16619 -1.60841,-0.83205 -1.60841,-0.75168 0,0.11066 1.29073,0.80076 1.51822,0.81172 0.0909,0.004 0.13153,-0.0226 0.0902,-0.06 z m -2.14956,-1.09813 c 0,-0.0461 -0.18264,-0.17235 -0.40586,-0.28052 -0.38974,-0.18887 -0.39195,-0.18554 -0.0557,0.0838 0.36803,0.29485 0.46158,0.33472 0.46158,0.19668 z m -0.90191,-0.52819 c 0,-0.039 -0.12598,-0.11924 -0.27995,-0.17832 -0.16052,-0.0616 -0.23293,-0.0314 -0.16973,0.0709 0.10593,0.1714 0.44968,0.25352 0.44968,0.10743 z m -0.82075,-0.44027 c -0.14595,-0.1281 -1.37131,-0.90102 -3.14768,-1.98546 -0.24802,-0.15142 -0.36978,-0.18653 -0.27057,-0.078 0.0992,0.1085 0.90663,0.65101 1.79427,1.20558 1.4999,0.93708 2.03823,1.22146 1.62398,0.8579 z m -3.68883,-2.2625 c 0,-0.0374 -1.05828,-0.82068 -2.35174,-1.74073 -9.58828,-6.82017 -17.81085,-16.12877 -23.02006,-26.06051 -1.34908,-2.57212 -1.52524,-2.64622 -0.2501,-0.1052 4.99522,9.95414 13.19003,19.23623 23.351,26.44921 2.08991,1.48357 2.2709,1.59971 2.2709,1.45723 z"
       id="path4"
       transform="translate(398.70001,243.07001)" />
  </g>
</svg>
