<svg xmlns="http://www.w3.org/2000/svg" width="1024" height="1024" viewBox="0 0 1024 1024">
<g>
<path d="M 511.25 784.28 C510.13,783.30 504.27,773.95 498.25,763.50 C492.22,753.05 483.92,738.65 479.79,731.50 C475.66,724.35 460.58,697.80 446.27,672.50 C431.96,647.20 413.61,614.80 405.51,600.50 C397.40,586.20 381.64,557.85 370.48,537.50 C359.32,517.15 345.36,491.73 339.46,481.00 C327.77,459.75 288.58,387.56 280.02,371.50 C273.84,359.90 255.63,326.42 239.50,297.00 C220.60,262.52 220.00,261.27 220.00,256.48 C220.00,248.65 223.16,243.52 230.21,239.90 C233.83,238.05 240.64,238.00 512.51,238.00 C753.82,238.00 791.47,238.19 793.90,239.45 C797.70,241.41 802.84,247.43 803.57,250.77 C803.90,252.27 804.33,254.03 804.52,254.68 C805.29,257.22 802.48,263.94 794.78,277.91 C776.46,311.18 768.30,326.02 727.96,399.50 C688.27,471.81 640.82,557.43 554.53,712.50 C518.18,777.82 513.82,786.11 512.36,785.63 C511.97,785.50 511.78,784.74 511.25,784.28 ZM 497.64 630.25 C503.20,620.49 514.15,601.25 521.99,587.50 C529.82,573.75 543.10,550.35 551.50,535.50 C559.90,520.65 576.32,491.62 587.99,471.00 C599.66,450.38 615.51,422.25 623.21,408.50 C630.91,394.75 638.93,380.58 641.03,377.00 C643.12,373.42 653.25,355.42 663.54,337.00 C673.82,318.58 685.11,298.40 688.62,292.16 C692.13,285.93 695.00,280.64 695.00,280.40 C695.00,280.16 681.92,280.09 665.92,280.23 L 636.85 280.50 L 636.85 280.50 L 622.25 280.22 C614.22,280.07 607.32,280.29 606.91,280.72 C606.44,281.21 599.65,292.89 585.28,317.97 C594.50,301.87 602.13,288.56 604.62,284.25 L 607.08 280.00 L 575.29 280.03 L 543.50 280.06 L 538.92 288.28 C536.41,292.80 523.43,315.85 510.09,339.50 C496.75,363.15 481.30,390.60 475.76,400.50 C470.21,410.40 453.61,439.71 438.85,465.64 C424.09,491.57 411.78,513.40 411.49,514.15 C410.97,515.53 440.19,569.00 441.47,569.00 C441.68,569.00 443.15,566.64 444.73,563.75 C445.61,562.15 450.24,554.01 456.80,542.54 C450.18,554.14 445.49,562.44 444.56,564.17 L 441.54 569.83 L 443.91 574.17 C445.22,576.55 448.53,582.25 451.26,586.83 C454.00,591.42 456.60,594.79 457.04,594.33 C457.62,593.73 461.58,587.05 471.42,569.95 C469.88,572.64 468.67,574.75 467.83,576.19 C461.87,586.47 457.00,595.23 457.00,595.66 C457.00,596.76 486.37,648.00 487.00,648.00 C487.29,648.00 492.08,640.01 497.64,630.25 ZM 399.58 481.25 C410.21,462.10 510.55,285.72 512.79,282.24 L 514.25 279.97 L 483.45 280.24 L 452.65 280.50 L 448.48 287.50 C446.19,291.35 440.03,301.92 434.79,311.00 C419.11,338.16 382.30,401.49 373.35,416.70 C368.76,424.51 365.00,431.43 365.00,432.07 C365.00,432.72 370.23,442.75 376.62,454.37 C383.01,465.99 389.78,478.31 391.67,481.75 C393.55,485.19 395.26,488.00 395.46,488.00 C395.66,488.00 397.52,484.96 399.58,481.25 ZM 385.50 343.30 C405.30,309.37 421.65,281.25 421.83,280.81 C422.02,280.36 390.82,280.00 352.50,280.00 C314.18,280.00 282.99,280.34 283.18,280.75 C284.33,283.26 295.26,304.34 301.39,315.88 C305.37,323.37 317.57,346.49 328.50,367.25 C339.43,388.01 348.63,405.00 348.94,404.99 C349.25,404.99 365.70,377.23 385.50,343.30 ZM 517.09 687.23 C520.32,681.18 536.69,651.76 571.74,589.00 C597.59,542.72 643.03,461.12 657.79,434.50 C666.33,419.10 689.00,378.27 708.16,343.76 C727.32,309.25 743.00,280.77 743.00,280.47 C743.00,280.17 738.68,280.06 733.40,280.21 L 723.80 280.50 L 712.06 301.50 C705.60,313.05 692.30,336.90 682.52,354.50 C607.58,489.24 541.93,606.36 514.12,654.91 C508.00,665.58 503.00,674.74 503.00,675.27 C503.00,676.50 512.34,693.98 513.00,693.97 C513.28,693.97 515.12,690.94 517.09,687.23 ZM 524.80 423.84 C533.23,409.09 542.36,393.08 553.25,374.00 C557.11,367.23 561.49,359.56 566.04,351.60 C562.09,358.52 557.83,365.98 553.25,374.00 C542.18,393.41 533.04,409.41 524.80,423.84 Z" fill="rgba(28,30,34,1)"/>
<path d="M 451.26 586.83 C448.53,582.25 445.22,576.55 443.91,574.17 L 441.54 569.83 L 444.56 564.17 C446.22,561.05 460.12,536.67 475.43,510.00 C503.47,461.17 519.15,433.76 553.25,374.00 C589.91,309.76 606.17,281.49 606.91,280.72 C607.32,280.29 614.22,280.07 622.25,280.22 L 636.85 280.50 L 627.10 297.50 C598.18,347.94 564.45,406.97 523.97,478.00 C473.46,566.63 458.23,593.10 457.04,594.33 C456.60,594.79 454.00,591.42 451.26,586.83 Z" fill="rgba(238,97,41,1)"/>
</g>
</svg>