<svg xmlns="http://www.w3.org/2000/svg" width="100" height="100" viewBox="0 0 100 100" fill="none">
  <path d="M50.999 12.222C49.233 13.332 45.887 17.144 44.428 19.531C43.246 21.426 42.831 20.862 41.649 21.618C41.022 22.033 35.372 24.073 33.606 25.807C32.147 27.271 33.884 30.227 33.329 31.128C32.84 31.922 31.02 32.113 29.77 33.138C28.235 34.385 27.177 37.246 26.201 38.909C25.157 40.684 23.944 41.986 22.788 43.554C21.632 45.121 20.538 45.847 19 47.349C18.165 48.164 18.373 49.303 18.373 49.953C18.373 50.602 18.512 52.087 19.694 52.374C20.953 52.679 24.079 53.31 25.714 53.806C27.348 54.303 29.031 56.089 30.109 56.631C31.294 57.226 32.702 56.75 33.467 57.401C34.336 58.142 34.544 60.22 35.719 61.059C36.766 61.81 38.834 61.792 40.088 62.258C41.386 62.741 40.738 63.553 42.062 63.679C43.62 63.827 44.949 61.983 46.284 61.059C47.562 60.174 46.666 58.131 47.605 57.2C48.401 56.412 51.621 56.412 52.436 55.581C53.329 54.672 53.468 50.236 53.896 49.391C54.453 48.28 55.417 47.83 56.051 46.703C56.818 45.342 57.371 43.38 58.064 42.084C59.038 40.348 58.986 38.669 59.803 36.999C60.655 35.262 62.093 32.818 63.037 31.128C64.184 29.095 66.197 27.629 66.83 25.245C67.499 22.74 68.981 21.006 67.869 18.769C67.315 17.694 65.839 16.982 64.633 16.209C63.429 15.437 60.217 14.101 58.621 13.543C56.802 12.904 53.083 10.881 50.999 12.222Z" fill="#7E57C2"/>
  <path d="M44 58C46.667 59.333 54.4 61.6 60 60" stroke="white" stroke-width="2" stroke-linecap="round" stroke-linejoin="round"/>
  <path d="M46.5 41C48.5 41 48.5 44 46.5 44C44.5 44 44.5 41 46.5 41Z" fill="white"/>
  <path d="M55.5 41C57.5 41 57.5 44 55.5 44C53.5 44 53.5 41 55.5 41Z" fill="white"/>
  <path d="M51 51.5C52 51.5 52 53 51 53C50 53 50 51.5 51 51.5Z" fill="white"/>
  <path d="M51 72C52.6569 72 54 70.6569 54 69C54 67.3431 52.6569 66 51 66C49.3431 66 48 67.3431 48 69C48 70.6569 49.3431 72 51 72Z" fill="black"/>
  <path d="M65 27L73 22" stroke="#FFEB3B" stroke-width="2" stroke-linecap="round"/>
  <path d="M67 31L78 35" stroke="#FFEB3B" stroke-width="2" stroke-linecap="round"/>
  <path d="M63 25L67 16" stroke="#FFEB3B" stroke-width="2" stroke-linecap="round"/>
</svg> 